<svg width="189" height="48" viewBox="0 0 189 48" fill="none" xmlns="http://www.w3.org/2000/svg">
<path fill-rule="evenodd" clip-rule="evenodd" d="M1.92609 1.9368L36.4291 1.93118L36.4287 37.7019C36.3849 40.1976 35.876 41.3397 33.4244 41.7076L22.3607 41.7601C20.4585 41.8234 19.7957 42.2617 19.2186 43.9842C18.5349 42.3966 17.8967 41.8937 16.3342 41.7601H5.39278C3.24392 41.8228 1.95533 40.7578 1.92188 37.8192L1.9261 1.9368H1.92609Z" fill="#E30016"/>
<path fill-rule="evenodd" clip-rule="evenodd" d="M0.0042253 0.0059302L38.3485 0L38.3481 37.7191L38.3478 37.7361C38.3256 39.0048 38.2018 40.4379 37.4119 41.5954C36.5377 42.8763 35.1699 43.398 33.7066 43.6176L33.5702 43.6381L26.743 43.6911C25.9327 43.7202 21.7428 43.6523 21.3891 43.8348C19.6996 44.7064 19.2173 48 19.2173 48C19.2173 48 18.3842 44.7269 16.933 43.857C16.5688 43.6388 13.9801 43.6913 12.4083 43.6913H5.41757C4.04644 43.7262 2.57535 43.4075 1.47447 42.2496C0.399913 41.1195 0.0194834 39.5418 0.000126991 37.8415L0 37.8303L0.0042253 0.0059302ZM1.92064 37.8194C1.95409 40.758 3.24268 41.823 5.39154 41.7602H16.3329C16.9934 41.8167 17.4888 41.9392 17.8922 42.1817C18.4431 42.5128 18.8227 43.0678 19.2173 43.9844C19.536 43.0333 19.8808 42.4737 20.4459 42.1526C20.9043 41.8922 21.5076 41.7886 22.3595 41.7602L33.4232 41.7077C35.8748 41.3399 36.3837 40.1978 36.4275 37.702L36.4279 1.93134L1.9247 1.93695L1.92064 37.8194Z" fill="#00588D"/>
<path fill-rule="evenodd" clip-rule="evenodd" d="M27.6307 25.785L28.0781 26.4575L19.8909 30.7146L19.8594 29.0234L27.2952 25.0086L27.6307 25.785Z" fill="#ECEDED"/>
<path fill-rule="evenodd" clip-rule="evenodd" d="M19.8629 21.25C19.9673 20.8941 20.0548 20.6031 19.8629 20.2882C20.3908 19.7839 20.4569 19.0535 20.0668 18.4846C19.4832 17.8176 18.6731 17.79 18.0559 18.2417C17.403 18.8857 17.46 19.6952 18.0559 20.2882C17.8858 20.6856 18.0162 20.9523 18.0972 21.25C18.0756 21.25 17.9274 21.1551 17.8682 21.1251C16.703 20.4948 16.4273 19.3254 16.9846 18.1998C17.6688 17.0985 18.8782 16.7401 20.0768 17.3783C21.6603 18.3904 21.3948 20.3349 19.8629 21.25Z" fill="#FFCB00"/>
<path fill-rule="evenodd" clip-rule="evenodd" d="M18.9862 38.2612L19.0013 38.2686C19.0026 38.2686 19.0039 38.2685 19.0051 38.2685C24.0418 41.8405 27.9124 37.3644 27.906 32.7522L27.4238 32.0733L26.8099 32.5795C26.669 37.2464 20.9837 39.937 20.079 34.7129C20.0085 33.2485 19.6354 23.0769 19.5703 21.6179L18.3721 21.6409C18.3071 23.0999 17.9912 33.2485 17.9207 34.7129C16.973 39.922 11.2101 37.2688 11.1317 32.6203L10.5193 32.0988L10.0719 32.6371L10.0664 32.7522C10.0598 37.3147 13.9308 41.8731 18.9672 38.2685C18.9685 38.2685 18.9698 38.2686 18.971 38.2686L18.9862 38.2612Z" fill="#FFCB00"/>
<path fill-rule="evenodd" clip-rule="evenodd" d="M31.4528 24.704L30.6152 23.1539C31.0056 22.9397 31.5121 23.1132 31.7427 23.5401C31.9734 23.9669 31.8431 24.4898 31.4528 24.704Z" fill="#ECEDED"/>
<path fill-rule="evenodd" clip-rule="evenodd" d="M31.2815 24.165C31.1384 24.2435 30.9526 24.18 30.868 24.0236C30.7834 23.8672 30.8312 23.6757 30.9744 23.5972C31.1175 23.5188 31.3033 23.5823 31.3879 23.7387C31.4725 23.895 31.4247 24.0866 31.2815 24.165Z" fill="#ECEDED"/>
<path fill-rule="evenodd" clip-rule="evenodd" d="M30.3937 24.8103C30.3274 24.9053 30.1704 25.0393 29.9442 25.0833C29.8444 25.2471 29.5428 25.3607 29.4635 25.3261C29.3366 25.5051 29.1838 25.5996 29.0462 25.6067L28.5195 24.6831C28.6671 24.4964 28.9584 24.3574 29.0497 24.4238C29.179 24.2729 29.279 24.1786 29.509 24.173C29.6255 24.0107 29.8205 23.9128 29.9852 23.9341C30.1424 23.7583 30.3006 23.7027 30.4135 23.7393C30.6051 23.5715 30.7068 23.5232 30.8333 23.5396L31.2764 24.3257C31.1706 24.4931 31.0554 24.5323 30.839 24.5723C30.7542 24.7295 30.5877 24.7803 30.3937 24.8103Z" fill="#ECEDED"/>
<path fill-rule="evenodd" clip-rule="evenodd" d="M29.4914 25.3273L28.5801 24.6083L29.4914 25.3273Z" fill="#ECEDED"/>
<path fill-rule="evenodd" clip-rule="evenodd" d="M29.9653 25.0681L29.0391 24.3821L29.9653 25.0681Z" fill="#ECEDED"/>
<path fill-rule="evenodd" clip-rule="evenodd" d="M30.3683 24.8156L29.541 24.1484L30.3683 24.8156Z" fill="#ECEDED"/>
<path fill-rule="evenodd" clip-rule="evenodd" d="M30.8181 24.5739L29.998 23.9115L30.8181 24.5739Z" fill="#ECEDED"/>
<path fill-rule="evenodd" clip-rule="evenodd" d="M31.1976 24.3165L30.418 23.7173L31.1976 24.3165Z" fill="#ECEDED"/>
<path fill-rule="evenodd" clip-rule="evenodd" d="M28.7205 26.1981C28.825 25.8684 28.9602 25.6935 29.1074 25.5812L28.5754 24.6669C28.3669 24.7197 28.2746 24.7416 27.9453 24.6433L28.7205 26.1981Z" fill="#ECEDED"/>
<path fill-rule="evenodd" clip-rule="evenodd" d="M28.3413 25.3826C28.3396 25.3794 28.3378 25.3762 28.3361 25.373C27.8131 24.4068 27.2805 23.3114 26.6238 22.5304C26.5197 22.5839 25.8645 23.1393 25.7324 23.4684C26.9432 24.5088 27.6426 24.9398 27.2711 25.9582L27.2647 25.9617C27.2663 25.9621 27.2678 25.9624 27.2694 25.9628C27.2688 25.9644 27.2683 25.9659 27.2678 25.9675L27.2742 25.9639C28.3241 26.2047 28.3018 27.0305 28.5083 28.6204C28.8541 28.688 29.6732 28.4367 29.7744 28.3779C29.4821 27.3976 28.8605 26.3508 28.3413 25.3826Z" fill="#ECEDED"/>
<path fill-rule="evenodd" clip-rule="evenodd" d="M29.2041 32.943L29.2147 32.9524C28.8424 31.601 28.1021 30.0085 27.1943 28.9901C27.1966 29.0049 27.1988 29.0196 27.201 29.0344C27.1999 29.0286 27.1989 29.0229 27.1978 29.0171C26.7514 30.3392 26.0496 31.8348 25.291 33.058C25.3334 33.0195 25.3839 32.9795 25.4407 32.9386C25.3913 32.9796 25.3517 33.0185 25.3244 33.0545C25.7427 32.9227 26.2831 32.7728 26.8584 32.6753L27.4013 32.1768L27.7506 32.7574C28.0776 32.7458 28.8042 32.8148 29.2015 32.9576C29.2036 32.9533 29.2044 32.9484 29.2041 32.943Z" fill="#FFCB00"/>
<path fill-rule="evenodd" clip-rule="evenodd" d="M8.70803 32.947L8.7019 32.9524C9.0742 31.601 9.81457 30.0085 10.7223 28.9901C10.7205 29.0018 10.7188 29.0134 10.717 29.0251C11.1635 30.3452 11.864 31.8372 12.6211 33.058C12.59 33.0298 12.5547 33.0008 12.5157 32.9713C12.5478 33.0003 12.5742 33.0282 12.5942 33.0545C12.1759 32.9227 11.6355 32.7728 11.0602 32.6753L10.5131 32.173L10.1615 32.7574C9.8345 32.7458 9.10792 32.8148 8.71057 32.9576C8.70905 32.9544 8.70821 32.9508 8.70803 32.947Z" fill="#FFCB00"/>
<path fill-rule="evenodd" clip-rule="evenodd" d="M19.5731 21.6276C19.1716 21.6212 18.77 21.6512 18.3609 21.6376C17.9358 21.173 17.7402 20.7191 18.1151 20.1678C18.4522 19.6188 19.368 19.4939 19.8273 20.1499C20.1661 20.7961 20.1272 21.1512 19.5731 21.6276Z" fill="#FFCB00"/>
<path fill-rule="evenodd" clip-rule="evenodd" d="M18.0441 31.5203L8.23783 36.8556L7.06641 36.7561L7.62193 35.6911L18.095 29.8674L18.0441 31.5203Z" fill="#ECEDED"/>
<path fill-rule="evenodd" clip-rule="evenodd" d="M29.6939 36.3783C29.5919 36.3413 29.5193 36.2399 29.4921 36.0964C29.465 35.9528 29.4856 35.779 29.5493 35.613C29.5968 35.4892 29.6659 35.3764 29.7477 35.2888C29.8295 35.2012 29.9204 35.1428 30.0089 35.1209C30.0974 35.099 30.1796 35.1147 30.245 35.1659C30.3104 35.2171 30.3561 35.3015 30.3763 35.4085C30.3965 35.5156 30.3904 35.6404 30.3586 35.7672C30.3268 35.8939 30.2709 36.017 30.1979 36.1208C30.1248 36.2246 30.038 36.3045 29.9483 36.3503C29.8586 36.3961 29.7701 36.4059 29.6939 36.3783Z" fill="#D9DADB"/>
<path fill-rule="evenodd" clip-rule="evenodd" d="M29.6673 36.3611L19.9377 31.4433L19.8867 30.0675L30.2073 35.1445C29.804 35.0971 29.3747 35.9603 29.6673 36.3611Z" fill="#ECEDED"/>
<path fill-rule="evenodd" clip-rule="evenodd" d="M15.7174 23.1658C15.2288 23.1364 14.2448 22.9639 13.7113 23.0383C13.5774 23.0395 13.4765 23.0618 13.4497 23.1075C13.3191 23.2339 13.1199 23.3394 12.9306 23.3222C12.0136 23.3802 12.0261 21.926 12.9189 21.9356C13.2563 21.9271 13.3075 22.0598 13.4776 22.2595C13.5419 22.2911 13.6328 22.3351 13.7155 22.3353C14.4307 22.429 14.9306 22.2349 15.7135 22.2348C16.6047 22.2108 17.5446 22.2243 18.4358 22.2281L18.3875 23.3077C17.5042 23.2809 16.6008 23.243 15.7174 23.1658Z" fill="#FFCB00"/>
<path fill-rule="evenodd" clip-rule="evenodd" d="M22.2247 23.1658C22.7138 23.1364 23.6988 22.9639 24.2328 23.0383C24.3669 23.0395 24.4679 23.0618 24.4947 23.1075C24.6254 23.2339 24.8249 23.3394 25.0144 23.3222C25.9323 23.3802 25.9197 21.926 25.026 21.9356C24.6883 21.9271 24.637 22.0598 24.4668 22.2595C24.4025 22.2911 24.3115 22.3351 24.2287 22.3353C23.5127 22.429 23.0123 22.2349 22.2286 22.2348C21.3365 22.2108 20.3979 22.2243 19.5059 22.2281L19.5479 23.3077C20.4321 23.2809 21.3405 23.243 22.2247 23.1658Z" fill="#FFCB00"/>
<path fill-rule="evenodd" clip-rule="evenodd" d="M7.31055 10.0951L10.2802 14.2723C10.0708 14.4741 9.92101 14.7275 9.83082 15.0324L7.31055 10.0951Z" fill="#102A83"/>
<path fill-rule="evenodd" clip-rule="evenodd" d="M8.29883 9.28174L11.0802 13.6113C10.8071 13.7932 10.5121 13.9558 10.3504 14.2153L8.29883 9.28174Z" fill="#102A83"/>
<path fill-rule="evenodd" clip-rule="evenodd" d="M9.32617 8.68518L11.9633 13.2942C11.7008 13.3334 11.3937 13.4427 11.132 13.5847L9.32617 8.68518Z" fill="#102A83"/>
<path fill-rule="evenodd" clip-rule="evenodd" d="M10.4336 8.27628L12.7919 13.162C12.5405 13.184 12.289 13.1935 12.0375 13.2671L10.4336 8.27628Z" fill="#102A83"/>
<path fill-rule="evenodd" clip-rule="evenodd" d="M11.584 7.99918L13.7757 13.1457L12.8751 13.1591L11.584 7.99918Z" fill="#102A83"/>
<path fill-rule="evenodd" clip-rule="evenodd" d="M12.5547 7.54379C13.1398 9.18067 13.725 10.8175 14.3101 12.4544C14.1594 12.6887 14.009 12.9226 13.8583 13.1569C13.4239 11.2857 12.9891 9.41493 12.5547 7.54379Z" fill="#102A83"/>
<path fill-rule="evenodd" clip-rule="evenodd" d="M13.2539 6.6937C13.7724 8.39436 14.2909 10.0954 14.8093 11.796C14.6472 11.9969 14.4852 12.1978 14.3227 12.3987C13.9663 10.4971 13.6103 8.59526 13.2539 6.6937Z" fill="#102A83"/>
<path fill-rule="evenodd" clip-rule="evenodd" d="M14.0508 5.90634C14.503 7.67082 14.9544 9.4353 15.4066 11.2001C15.2328 11.3676 15.059 11.5355 14.8851 11.703C14.6071 9.77065 14.3292 7.83834 14.0508 5.90634Z" fill="#102A83"/>
<path fill-rule="evenodd" clip-rule="evenodd" d="M14.9395 5.19916C15.325 7.02743 15.7098 8.85602 16.095 10.6843C15.9098 10.8188 15.7242 10.9532 15.539 11.0877C15.339 9.12497 15.1394 7.1619 14.9395 5.19916Z" fill="#102A83"/>
<path fill-rule="evenodd" clip-rule="evenodd" d="M15.9277 4.59357C16.2466 6.48596 16.5648 8.37804 16.8833 10.2704C16.6863 10.3715 16.4894 10.473 16.2924 10.5741C16.1709 8.58056 16.0493 6.58706 15.9277 4.59357Z" fill="#102A83"/>
<path fill-rule="evenodd" clip-rule="evenodd" d="M16.998 4.11078C17.2502 6.06698 17.5024 8.02318 17.7545 9.97937C17.5456 10.0474 17.3367 10.1155 17.1277 10.1835C17.0845 8.15928 17.0417 6.13503 16.998 4.11078Z" fill="#102A83"/>
<path fill-rule="evenodd" clip-rule="evenodd" d="M18.1308 3.77682C18.3162 5.79683 18.5013 7.81651 18.6867 9.8365C18.4664 9.87151 18.2461 9.90619 18.0254 9.9412C18.0607 7.88619 18.0959 5.83151 18.1308 3.77682Z" fill="#102A83"/>
<path fill-rule="evenodd" clip-rule="evenodd" d="M19.2973 3.59506L19.6531 9.84633L18.957 9.85115L19.2973 3.59506Z" fill="#102A83"/>
<path fill-rule="evenodd" clip-rule="evenodd" d="M31.2822 10.0952L28.3125 14.2724C28.522 14.4742 28.6717 14.7276 28.7619 15.0325L31.2822 10.0952Z" fill="#102A83"/>
<path fill-rule="evenodd" clip-rule="evenodd" d="M30.299 9.28149L27.5176 13.611C27.7906 13.793 28.0857 13.9556 28.2474 14.215L30.299 9.28149Z" fill="#102A83"/>
<path fill-rule="evenodd" clip-rule="evenodd" d="M29.2718 8.6853L26.6348 13.2943C26.8972 13.3335 27.2044 13.4428 27.4661 13.5848L29.2718 8.6853Z" fill="#102A83"/>
<path fill-rule="evenodd" clip-rule="evenodd" d="M28.165 8.2764L25.8066 13.1622C26.0581 13.1841 26.3096 13.1936 26.5611 13.2672L28.165 8.2764Z" fill="#102A83"/>
<path fill-rule="evenodd" clip-rule="evenodd" d="M27.0101 7.99893L24.8184 13.1455L25.719 13.1589L27.0101 7.99893Z" fill="#102A83"/>
<path fill-rule="evenodd" clip-rule="evenodd" d="M26.0386 7.54352C25.4535 9.18039 24.8683 10.8173 24.2832 12.4541C24.4339 12.6884 24.5843 12.9223 24.735 13.1566C25.1694 11.2855 25.6042 9.41465 26.0386 7.54352Z" fill="#102A83"/>
<path fill-rule="evenodd" clip-rule="evenodd" d="M25.3425 6.69382C24.8241 8.39448 24.3056 10.0955 23.7871 11.7962C23.9492 11.9971 24.1113 12.198 24.2738 12.3988C24.6302 10.4973 24.9862 8.59538 25.3425 6.69382Z" fill="#102A83"/>
<path fill-rule="evenodd" clip-rule="evenodd" d="M24.5473 5.9061C24.0951 7.67058 23.6436 9.43505 23.1914 11.1999C23.3652 11.3674 23.5391 11.5352 23.7129 11.7027C23.9909 9.77041 24.2689 7.83809 24.5473 5.9061Z" fill="#102A83"/>
<path fill-rule="evenodd" clip-rule="evenodd" d="M23.6555 5.19891C23.27 7.02719 22.8852 8.85578 22.5 10.6841C22.6852 10.8185 22.8708 10.953 23.056 11.0875C23.2559 9.12472 23.4555 7.16165 23.6555 5.19891Z" fill="#102A83"/>
<path fill-rule="evenodd" clip-rule="evenodd" d="M22.6684 4.59332C22.3495 6.48572 22.0314 8.3778 21.7129 10.2702C21.9098 10.3713 22.1068 10.4727 22.3037 10.5738C22.4253 8.58032 22.5469 6.58682 22.6684 4.59332Z" fill="#102A83"/>
<path fill-rule="evenodd" clip-rule="evenodd" d="M21.6002 4.1109C21.3481 6.0671 21.0959 8.0233 20.8438 9.9795C21.0527 10.0476 21.2616 10.1156 21.4706 10.1837C21.5138 8.15941 21.5566 6.13515 21.6002 4.1109Z" fill="#102A83"/>
<path fill-rule="evenodd" clip-rule="evenodd" d="M20.468 3.77689C20.2826 5.79689 20.0975 7.81657 19.9121 9.83656C20.1324 9.87157 20.3527 9.90625 20.5734 9.94126C20.5382 7.88625 20.5029 5.83157 20.468 3.77689Z" fill="#102A83"/>
<path fill-rule="evenodd" clip-rule="evenodd" d="M19.3011 3.59506L18.9453 9.84633L19.6414 9.85115L19.3011 3.59506Z" fill="#102A83"/>
<rect x="1.92188" y="1.93118" width="34.4507" height="13.9849" fill="#0070B3"/>
<path fill-rule="evenodd" clip-rule="evenodd" d="M7.18359 9.90451L10.1533 14.0817C9.94384 14.2835 9.79405 14.5369 9.70386 14.8417L7.18359 9.90451Z" fill="#FFCB00"/>
<path fill-rule="evenodd" clip-rule="evenodd" d="M8.17188 9.09079L10.9533 13.4203C10.6802 13.6023 10.3852 13.7649 10.2234 14.0243L8.17188 9.09079Z" fill="#FFCB00"/>
<path fill-rule="evenodd" clip-rule="evenodd" d="M9.19922 8.49423L11.8363 13.1032C11.5739 13.1425 11.2667 13.2517 11.005 13.3937L9.19922 8.49423Z" fill="#FFCB00"/>
<path fill-rule="evenodd" clip-rule="evenodd" d="M10.3066 8.08533L12.665 12.9711C12.4135 12.993 12.162 13.0025 11.9106 13.0761L10.3066 8.08533Z" fill="#FFCB00"/>
<path fill-rule="evenodd" clip-rule="evenodd" d="M11.457 7.80823L13.6487 12.9547L12.7481 12.9682L11.457 7.80823Z" fill="#FFCB00"/>
<path fill-rule="evenodd" clip-rule="evenodd" d="M12.4277 7.35284C13.0129 8.98972 13.598 10.6266 14.1831 12.2635C14.0324 12.4977 13.8821 12.7317 13.7313 12.9659C13.2969 11.0948 12.8621 9.22398 12.4277 7.35284Z" fill="#FFCB00"/>
<path fill-rule="evenodd" clip-rule="evenodd" d="M13.127 6.50275C13.6454 8.20343 14.1639 9.90442 14.6824 11.6051C14.5203 11.806 14.3582 12.0069 14.1957 12.2078C13.8393 10.3062 13.4833 8.40432 13.127 6.50275Z" fill="#FFCB00"/>
<path fill-rule="evenodd" clip-rule="evenodd" d="M13.9238 5.71539C14.376 7.47986 14.8275 9.24435 15.2797 11.0092C15.1059 11.1767 14.932 11.3445 14.7582 11.512C14.4802 9.5797 14.2022 7.64738 13.9238 5.71539Z" fill="#FFCB00"/>
<path fill-rule="evenodd" clip-rule="evenodd" d="M14.8125 5.00821C15.1981 6.83648 15.5828 8.66509 15.968 10.4934C15.7828 10.6278 15.5972 10.7623 15.412 10.8968C15.2121 8.93402 15.0125 6.97096 14.8125 5.00821Z" fill="#FFCB00"/>
<path fill-rule="evenodd" clip-rule="evenodd" d="M15.8008 4.40262C16.1197 6.29503 16.4378 8.1871 16.7563 10.0795C16.5594 10.1806 16.3624 10.282 16.1655 10.3831C16.0439 8.38963 15.9224 6.39612 15.8008 4.40262Z" fill="#FFCB00"/>
<path fill-rule="evenodd" clip-rule="evenodd" d="M16.8711 3.91983C17.1232 5.87604 17.3754 7.83224 17.6276 9.78844C17.4186 9.85649 17.2097 9.92455 17.0008 9.99259C16.9575 7.96835 16.9147 5.94409 16.8711 3.91983Z" fill="#FFCB00"/>
<path fill-rule="evenodd" clip-rule="evenodd" d="M18.0039 3.58588C18.1893 5.60588 18.3743 7.62555 18.5598 9.64555C18.3395 9.68057 18.1191 9.71525 17.8984 9.75026C17.9337 7.69525 17.969 5.64056 18.0039 3.58588Z" fill="#FFCB00"/>
<path fill-rule="evenodd" clip-rule="evenodd" d="M19.1703 3.40411L19.5261 9.65538L18.8301 9.66019L19.1703 3.40411Z" fill="#FFCB00"/>
<path fill-rule="evenodd" clip-rule="evenodd" d="M31.1611 9.90442L28.1914 14.0816C28.4009 14.2834 28.5506 14.5368 28.6408 14.8417L31.1611 9.90442Z" fill="#FFCB00"/>
<path fill-rule="evenodd" clip-rule="evenodd" d="M30.172 9.09079L27.3906 13.4203C27.6637 13.6023 27.9587 13.7649 28.1204 14.0243L30.172 9.09079Z" fill="#FFCB00"/>
<path fill-rule="evenodd" clip-rule="evenodd" d="M29.1449 8.49423L26.5078 13.1032C26.7703 13.1425 27.0774 13.2517 27.3391 13.3937L29.1449 8.49423Z" fill="#FFCB00"/>
<path fill-rule="evenodd" clip-rule="evenodd" d="M28.038 8.08533L25.6797 12.9711C25.9312 12.993 26.1826 13.0025 26.4341 13.0761L28.038 8.08533Z" fill="#FFCB00"/>
<path fill-rule="evenodd" clip-rule="evenodd" d="M26.889 7.80817L24.6973 12.9547L25.5979 12.9681L26.889 7.80817Z" fill="#FFCB00"/>
<path fill-rule="evenodd" clip-rule="evenodd" d="M25.9136 7.35278C25.3285 8.98966 24.7433 10.6265 24.1582 12.2634C24.3089 12.4977 24.4593 12.7316 24.61 12.9659C25.0444 11.0947 25.4792 9.22392 25.9136 7.35278Z" fill="#FFCB00"/>
<path fill-rule="evenodd" clip-rule="evenodd" d="M25.2156 6.50269C24.6971 8.20337 24.1786 9.90436 23.6602 11.605C23.8222 11.8059 23.9843 12.0068 24.1468 12.2077C24.5032 10.3061 24.8592 8.40426 25.2156 6.50269Z" fill="#FFCB00"/>
<path fill-rule="evenodd" clip-rule="evenodd" d="M24.4203 5.71536C23.9681 7.47983 23.5167 9.24432 23.0645 11.0091C23.2383 11.1766 23.4121 11.3445 23.586 11.512C23.864 9.57967 24.1419 7.64735 24.4203 5.71536Z" fill="#FFCB00"/>
<path fill-rule="evenodd" clip-rule="evenodd" d="M23.5305 5.00821C23.145 6.83648 22.7602 8.66509 22.375 10.4934C22.5602 10.6278 22.7458 10.7623 22.931 10.8968C23.1309 8.93402 23.3305 6.97096 23.5305 5.00821Z" fill="#FFCB00"/>
<path fill-rule="evenodd" clip-rule="evenodd" d="M22.5454 4.40259C22.2265 6.295 21.9084 8.18707 21.5898 10.0795C21.7868 10.1806 21.9837 10.282 22.1807 10.3831C22.3022 8.3896 22.4238 6.39609 22.5454 4.40259Z" fill="#FFCB00"/>
<path fill-rule="evenodd" clip-rule="evenodd" d="M21.4733 3.92017C21.2211 5.87638 20.969 7.83257 20.7168 9.78877C20.9257 9.85682 21.1347 9.92488 21.3436 9.99293C21.3868 7.96868 21.4297 5.94443 21.4733 3.92017Z" fill="#FFCB00"/>
<path fill-rule="evenodd" clip-rule="evenodd" d="M20.3411 3.58578C20.1556 5.60579 19.9706 7.62546 19.7852 9.64546C20.0055 9.68047 20.2258 9.71516 20.4465 9.75017C20.4112 7.69515 20.3759 5.64047 20.3411 3.58578Z" fill="#FFCB00"/>
<path fill-rule="evenodd" clip-rule="evenodd" d="M19.1742 3.40411L18.8184 9.65538L19.5144 9.66019L19.1742 3.40411Z" fill="#FFCB00"/>
<path fill-rule="evenodd" clip-rule="evenodd" d="M7.62239 25.0675C7.43216 24.6847 7.71256 23.8909 8.21637 24.0228C8.06976 24.2104 7.76065 24.825 7.62239 25.0675Z" fill="#ECEDED"/>
<path fill-rule="evenodd" clip-rule="evenodd" d="M13.4356 20.936C12.5377 21.2644 10.9694 22.2467 9.49754 24.061C7.67479 26.3544 6.47092 29.3737 6.38682 31.7494C5.97209 30.1377 6.35907 27.7395 7.47373 25.7128C7.61339 24.9436 7.80949 24.121 8.79825 23.6067C10.1449 22.1925 12.0821 20.9399 13.4356 20.936Z" fill="#ECEDED"/>
<path fill-rule="evenodd" clip-rule="evenodd" d="M6.35162 31.309C6.45431 29.6059 6.80676 28.8927 8.09169 26.0586C8.01349 25.3645 8.80454 24.3152 9.4659 23.9231C10.7359 22.3699 12.0563 21.5148 13.0638 21.0195C13.285 20.9003 13.6576 20.9277 13.2799 21.1393C12.0239 22.0541 11.1169 23.1434 10.2309 24.4716C10.036 25.3276 9.61894 25.9926 8.82372 26.4552C7.86707 27.8796 7.35705 29.2019 6.62275 31.1631C6.42853 31.9325 6.32566 31.8088 6.35162 31.309Z" fill="#ECEDED"/>
<path fill-rule="evenodd" clip-rule="evenodd" d="M18.0797 30.6632L8.85937 25.8308C8.42624 25.3277 8.89983 24.6576 9.40052 24.8806L18.118 29.2331L18.0797 30.6632Z" fill="#ECEDED"/>
<path d="M53.123 8.17028H54.3035V2.70676H48.3809V3.70943H49.4188V17.0511H48.3809V18.0537H54.3035V12.5698H53.123V17.0511H50.5993V10.8918H52.777V9.90961H50.5993V3.70943H53.123V8.17028Z" fill="#044770"/>
<path d="M60.884 18.0537V20.0386H62.0034V17.0511H61.0876V8.41583H62.0034V7.41317H55.572V8.41583H56.4879V12.3242C56.4879 15.9666 56.0605 17.0511 56.0605 17.0511H55.5313V20.0386H56.6507V18.0537H60.884ZM57.648 8.41583H59.9275V17.0511H57.2206C57.2206 17.0511 57.648 16.2326 57.648 12.4879V8.41583Z" fill="#044770"/>
<path d="M64.8178 15.8642H64.7975L65.001 12.6311V8.41583H65.8762V7.41317H62.925V8.41583H63.8409V17.0511H63.1489V18.0537H65.001L67.8911 9.86868H67.9114L67.7282 13.0609V17.0511H66.8327V18.0537H69.8042V17.0511H68.8883V8.41583H69.8042V7.41317H67.7282L64.8178 15.8642Z" fill="#044770"/>
<path d="M71.6515 17.0511H70.756V18.0537H73.6868V17.0511H72.8116V13.1222H75.5389V17.0511H74.6637V18.0537H77.5945V17.0511H76.699V8.41583H77.5945V7.41317H74.6637V8.41583H75.5389V12.2423H72.8116V8.41583H73.6868V7.41317H70.756V8.41583H71.6515V17.0511Z" fill="#044770"/>
<path d="M79.8541 8.29306L79.793 7.41317H78.9789V11.0555H79.9762V10.0528C79.9762 8.9274 80.3629 8.21121 81.3398 8.21121C82.0929 8.21121 82.6017 8.64092 82.6017 9.93007V11.4034L81.2991 11.8331C79.2842 12.5084 78.3277 13.7361 78.3277 15.4754C78.3277 16.9488 79.1011 18.1561 80.7496 18.1561C81.6655 18.1561 82.561 17.7468 82.8256 16.7237V18.0537H84.6573V17.0511H83.7618V9.84822C83.7618 8.2726 83.0902 7.20854 81.6044 7.20854C80.9124 7.20854 80.2001 7.51548 79.8745 8.29306H79.8541ZM82.6017 12.3856V14.6774C82.6017 16.3758 82.0522 17.092 80.9328 17.092C79.9355 17.092 79.5081 16.294 79.5081 15.3731C79.5081 14.1454 80.0983 13.1836 81.4009 12.7744L82.6017 12.3856Z" fill="#044770"/>
<path d="M86.2591 17.0511H85.4043V18.0537H87.4192V14.9843C87.4192 13.8589 87.7652 13.0813 88.6607 13.0813H89.6377V17.0511H88.7625V18.0537H91.7136V17.0511H90.7978V8.41583H91.7136V7.41317H88.4369C87.0122 7.41317 85.9945 8.21121 85.9945 10.237C85.9945 11.5262 86.483 12.4879 87.7652 12.5698C86.8901 12.6107 86.2591 13.3269 86.2591 15.1276V17.0511ZM89.6377 12.0786H88.6404C87.7449 12.0786 87.1343 11.5875 87.1343 10.2575C87.1343 9.19342 87.5413 8.41583 88.62 8.41583H89.6377V12.0786Z" fill="#044770"/>
<path d="M98.9092 12.5698L101.27 17.0511H100.619V18.0537H103.468V17.0511H102.552L100.09 12.5288L102.532 8.41583H103.448V7.41317H100.558V8.41583H101.311L98.9092 12.5698ZM98.8889 17.0511V8.4363H99.5605V7.43363H96.8129V8.4363H97.7288V17.0511H96.8129V18.0537H99.5605V17.0511H98.8889Z" fill="#044770"/>
<path d="M105.494 8.29306L105.433 7.41317H104.618V11.0555H105.616V10.0528C105.616 8.9274 106.002 8.21121 106.979 8.21121C107.732 8.21121 108.241 8.64092 108.241 9.93007V11.4034L106.939 11.8331C104.924 12.5084 103.967 13.7361 103.967 15.4754C103.967 16.9488 104.741 18.1561 106.389 18.1561C107.305 18.1561 108.201 17.7468 108.465 16.7237V18.0537H110.297V17.0511H109.401V9.84822C109.401 8.2726 108.73 7.20854 107.244 7.20854C106.552 7.20854 105.84 7.51548 105.514 8.29306H105.494ZM108.241 12.3856V14.6774C108.241 16.3758 107.692 17.092 106.572 17.092C105.575 17.092 105.148 16.294 105.148 15.3731C105.148 14.1454 105.738 13.1836 107.04 12.7744L108.241 12.3856Z" fill="#044770"/>
<path d="M112.422 7.41317H110.529V8.41583H111.384V20.2432H110.529V21.2459H113.399V20.2432H112.544V17.2762H112.565C112.85 17.9924 113.44 18.1561 114.05 18.1561C115.658 18.1561 116.289 17.0306 116.289 15.455V9.70498C116.289 7.90427 115.373 7.20854 114.254 7.20854C113.155 7.20854 112.707 7.88381 112.463 8.53861L112.422 7.41317ZM115.109 15.2094C115.109 16.6214 114.559 17.1534 113.786 17.1534C112.89 17.1534 112.544 16.4167 112.544 15.3117V10.1756C112.544 8.78416 113.094 8.23167 113.867 8.23167C114.763 8.23167 115.109 8.96833 115.109 9.971V15.2094Z" fill="#044770"/>
<path d="M122.472 17.0511H121.251V8.41583H122.92V10.4007H124.039V7.41317H117.302V10.4007H118.422V8.41583H120.091V17.0511H118.849V18.0537H122.472V17.0511Z" fill="#044770"/>
<path d="M125.946 8.29306L125.885 7.41317H125.07V11.0555H126.068V10.0528C126.068 8.9274 126.454 8.21121 127.431 8.21121C128.184 8.21121 128.693 8.64092 128.693 9.93007V11.4034L127.391 11.8331C125.376 12.5084 124.419 13.7361 124.419 15.4754C124.419 16.9488 125.193 18.1561 126.841 18.1561C127.757 18.1561 128.653 17.7468 128.917 16.7237V18.0537H130.749V17.0511H129.853V9.84822C129.853 8.2726 129.182 7.20854 127.696 7.20854C127.004 7.20854 126.292 7.51548 125.966 8.29306H125.946ZM128.693 12.3856V14.6774C128.693 16.3758 128.144 17.092 127.024 17.092C126.027 17.092 125.6 16.294 125.6 15.3731C125.6 14.1454 126.19 13.1836 127.492 12.7744L128.693 12.3856Z" fill="#044770"/>
<path d="M144.439 17.0511H143.605V18.0537H146.658V17.0511H145.66L143.523 12.5288L145.498 8.41583H146.495V7.41317H143.422V8.41583H144.297L142.526 12.14H141.692V8.51815H142.546V7.41317H139.636V8.51815H140.532V12.14H139.697L137.886 8.41583H138.761V7.41317H135.688V8.41583H136.685L138.7 12.5288L136.563 17.0511H135.566V18.0537H138.618V17.0511H137.784L139.514 13.245H140.532V17.0511H139.636V18.0537H142.587V17.0511H141.692V13.245H142.709L144.439 17.0511Z" fill="#044770"/>
<path d="M149.17 15.8642H149.149L149.353 12.6311V8.41583H150.228V7.41317H147.277V8.41583H148.193V17.0511H147.501V18.0537H149.353L152.243 9.86868H152.263L152.08 13.0609V17.0511H151.185V18.0537H154.156V17.0511H153.24V8.41583H154.156V7.41317H152.08L149.17 15.8642Z" fill="#044770"/>
<path d="M160.037 17.0511H158.816V8.41583H160.484V10.4007H161.604V7.41317H154.867V10.4007H155.987V8.41583H157.655V17.0511H156.414V18.0537H160.037V17.0511Z" fill="#044770"/>
<path d="M163.788 13.1836H167.492V9.93007C167.492 8.35445 166.8 7.20854 165.05 7.20854C163.646 7.20854 162.628 7.98612 162.628 9.95053V15.4141C162.628 17.0101 163.3 18.1561 165.05 18.1561C166.475 18.1561 167.492 17.3785 167.492 15.4141V14.5137H166.332V15.5164C166.332 16.4577 165.986 17.1534 165.091 17.1534C164.338 17.1534 163.788 16.7032 163.788 15.5164V13.1836ZM163.788 12.1605V9.82776C163.788 8.88648 164.134 8.21121 165.05 8.21121C165.803 8.21121 166.332 8.66139 166.332 9.84822V12.1605H163.788Z" fill="#044770"/>
<path d="M170.659 8.41583H172.45V17.0511H171.677V18.0537H174.547V17.0511H173.631V8.41583H174.547V7.41317H168.583V8.41583H169.479V15.3731C169.479 16.7851 169.418 17.0511 168.705 17.0511H168.237V18.0537H169.296C170.211 18.0537 170.7 17.1738 170.659 15.5368V8.41583Z" fill="#044770"/>
<path d="M176.077 17.0511H175.222V18.0537H177.237V14.9843C177.237 13.8589 177.583 13.0813 178.479 13.0813H179.455V17.0511H178.58V18.0537H181.531V17.0511H180.616V8.41583H181.531V7.41317H178.255C176.83 7.41317 175.812 8.21121 175.812 10.237C175.812 11.5262 176.301 12.4879 177.583 12.5698C176.708 12.6107 176.077 13.3269 176.077 15.1276V17.0511ZM179.455 12.0786H178.458C177.563 12.0786 176.952 11.5875 176.952 10.2575C176.952 9.19342 177.359 8.41583 178.438 8.41583H179.455V12.0786Z" fill="#044770"/>
<path d="M57.1935 26.3315L53.8964 38.7933L50.6196 26.3315H48.4012V27.3342H49.4595V40.6759H48.3809V41.6785H51.6576V40.6759H50.64V35.7444L50.5179 29.7079L53.2655 40.6554H54.5477L57.275 29.7079L57.1732 35.7239V40.6759H56.1556V41.6785H59.4323V40.6759H58.3536V27.3342H59.412V26.3315H57.1935Z" fill="#044770"/>
<path d="M62.0812 31.0379H59.6185V32.0406H60.5344L61.9998 41.6785H62.8139L62.59 43.1928C62.4882 43.8271 62.1829 44.0317 61.7962 44.0317H60.5751V45.0549H61.898C62.9971 45.0344 63.5466 44.2773 63.689 43.2337L65.2562 32.0406H66.1721V31.0379H63.6483V32.0406H64.1368L62.9563 40.7372L61.6334 32.0406H62.0812V31.0379Z" fill="#044770"/>
<path d="M68.7158 31.0379H66.823V32.0406H67.6778V43.868H66.823V44.8707H69.6927V43.868H68.8379V40.9009H68.8583C69.1432 41.6171 69.7334 41.7808 70.344 41.7808C71.9519 41.7808 72.5828 40.6554 72.5828 39.0798V33.3298C72.5828 31.5291 71.6669 30.8333 70.5476 30.8333C69.4485 30.8333 69.0008 31.5086 68.7565 32.1634L68.7158 31.0379ZM71.4024 38.8342C71.4024 40.2461 70.8528 40.7782 70.0794 40.7782C69.1839 40.7782 68.8379 40.0415 68.8379 38.9365V33.8004C68.8379 32.4089 69.3875 31.8565 70.1609 31.8565C71.0564 31.8565 71.4024 32.5931 71.4024 33.5958V38.8342Z" fill="#044770"/>
<path d="M80.4973 31.0379L78.055 38.5477L75.633 31.0379H73.5977V32.0406H74.4933V40.6759H73.5774V41.6785H76.5285V40.6759H75.6534V37.6065L75.4295 33.3912H75.4498L77.5461 40.1643H78.5841L80.6601 33.3707H80.6805L80.4769 37.5655V40.6759H79.6018V41.6785H82.5529V40.6759H81.637V32.0406H82.5325V31.0379H80.4973Z" fill="#044770"/>
<path d="M84.7832 31.9178L84.7222 31.0379H83.9081V34.6803H84.9054V33.6776C84.9054 32.5522 85.2921 31.836 86.269 31.836C87.022 31.836 87.5308 32.2657 87.5308 33.5549V35.0282L86.2283 35.4579C84.2134 36.1332 83.2568 37.3609 83.2568 39.1002C83.2568 40.5735 84.0302 41.7808 85.6788 41.7808C86.5946 41.7808 87.4901 41.3716 87.7547 40.3485V41.6785H89.5865V40.6759H88.691V33.473C88.691 31.8974 88.0193 30.8333 86.5336 30.8333C85.8416 30.8333 85.1292 31.1403 84.8036 31.9178H84.7832ZM87.5308 36.0104V38.3022C87.5308 40.0006 86.9813 40.7168 85.8619 40.7168C84.8647 40.7168 84.4373 39.9187 84.4373 38.9979C84.4373 37.7702 85.0275 36.8084 86.33 36.3992L87.5308 36.0104Z" fill="#044770"/>
<path d="M91.1694 40.6759H90.2738V41.6785H93.2046V40.6759H92.3295V36.747H95.0567V40.6759H94.1815V41.6785H97.1123V40.6759H96.2168V32.0406H97.1123V31.0379H94.1815V32.0406H95.0567V35.8671H92.3295V32.0406H93.2046V31.0379H90.2738V32.0406H91.1694V40.6759Z" fill="#044770"/>
<path d="M102.035 31.8565H101.994C101.77 31.263 101.282 30.8333 100.447 30.8333C99.2261 30.8333 98.3306 31.5904 98.3306 33.5344V39.0798C98.3306 40.6554 98.9819 41.7808 100.692 41.7808C102.096 41.7808 103.113 41.0442 103.113 39.1412V38.0566H101.953V39.1821C101.953 40.1029 101.607 40.7782 100.732 40.7782C100.02 40.7782 99.4907 40.328 99.4907 39.1821V33.7799C99.4907 32.6545 99.8367 31.836 100.712 31.836C101.424 31.836 101.933 32.3885 101.933 33.7799V34.8645H103.093V31.0379H102.137L102.035 31.8565Z" fill="#044770"/>
<path d="M106.223 36.1945L108.584 40.6759H107.933V41.6785H110.782V40.6759H109.867L107.404 36.1536L109.846 32.0406H110.762V31.0379H107.872V32.0406H108.625L106.223 36.1945ZM106.203 40.6759V32.0611H106.875V31.0584H104.127V32.0611H105.043V40.6759H104.127V41.6785H106.875V40.6759H106.203Z" fill="#044770"/>
<path d="M111.429 39.0593C111.429 40.6554 112.1 41.8013 113.851 41.8013C115.275 41.8013 116.293 41.0237 116.293 39.0593V33.5549C116.293 31.9792 115.621 30.8333 113.871 30.8333C112.446 30.8333 111.429 31.6109 111.429 33.5753V39.0593ZM115.133 39.1616C115.133 40.1029 114.766 40.7986 113.851 40.7986C113.118 40.7986 112.589 40.3485 112.589 39.1616V33.4525C112.589 32.5113 112.935 31.836 113.851 31.836C114.604 31.836 115.133 32.2862 115.133 33.473V39.1616Z" fill="#044770"/>
<path d="M122.718 27.8253H121.863V28.2141C121.863 28.5415 121.66 28.9712 120.907 28.9712C120.154 28.9712 119.95 28.5415 119.95 28.2141V27.8253H119.095V28.2755C119.095 28.9712 119.584 29.7693 120.907 29.7693C122.229 29.7693 122.718 28.9712 122.718 28.2755V27.8253ZM119.217 39.489H119.197L119.4 36.2559V32.0406H120.276V31.0379H117.325V32.0406H118.24V40.6759H117.548V41.6785H119.4L122.291 33.4935H122.311L122.128 36.6856V40.6759H121.232V41.6785H124.204V40.6759H123.288V32.0406H124.204V31.0379H122.128L119.217 39.489Z" fill="#044770"/>
<path d="M129.595 39.0593C129.595 40.6554 130.267 41.8013 132.017 41.8013C133.442 41.8013 134.459 41.0237 134.459 39.0593V33.5549C134.459 31.9792 133.788 30.8333 132.037 30.8333C130.613 30.8333 129.595 31.6109 129.595 33.5753V39.0593ZM133.299 39.1616C133.299 40.1029 132.933 40.7986 132.017 40.7986C131.284 40.7986 130.755 40.3485 130.755 39.1616V33.4525C130.755 32.5113 131.101 31.836 132.017 31.836C132.77 31.836 133.299 32.2862 133.299 33.473V39.1616Z" fill="#044770"/>
<path d="M140.864 34.0255V31.0379H135.45V32.0406H136.346V40.6759H135.45V41.6785H138.971C140.416 41.6785 141.474 40.8191 141.474 38.5887C141.474 36.6856 140.742 35.3146 138.849 35.3146H137.506V32.0406H139.785V34.0255H140.864ZM137.506 40.6759V36.2559H138.747C139.643 36.2559 140.294 36.8903 140.294 38.5477C140.294 39.7755 139.867 40.6759 138.747 40.6759H137.506Z" fill="#044770"/>
<path d="M144.443 32.0406H146.234V40.6759H145.461V41.6785H148.331V40.6759H147.415V32.0406H148.331V31.0379H142.367V32.0406H143.263V38.9979C143.263 40.4098 143.202 40.6759 142.489 40.6759H142.021V41.6785H143.08C143.996 41.6785 144.484 40.7986 144.443 39.1616V32.0406Z" fill="#044770"/>
<path d="M150.591 31.9178L150.53 31.0379H149.716V34.6803H150.713V33.6776C150.713 32.5522 151.1 31.836 152.077 31.836C152.83 31.836 153.339 32.2657 153.339 33.5549V35.0282L152.036 35.4579C150.021 36.1332 149.065 37.3609 149.065 39.1002C149.065 40.5735 149.838 41.7808 151.487 41.7808C152.403 41.7808 153.298 41.3716 153.563 40.3485V41.6785H155.395V40.6759H154.499V33.473C154.499 31.8974 153.827 30.8333 152.342 30.8333C151.65 30.8333 150.937 31.1403 150.612 31.9178H150.591ZM153.339 36.0104V38.3022C153.339 40.0006 152.789 40.7168 151.67 40.7168C150.673 40.7168 150.245 39.9187 150.245 38.9979C150.245 37.7702 150.836 36.8084 152.138 36.3992L153.339 36.0104Z" fill="#044770"/>
<path d="M159.873 31.8565H159.832C159.608 31.263 159.12 30.8333 158.285 30.8333C157.064 30.8333 156.169 31.5904 156.169 33.5344V39.0798C156.169 40.6554 156.82 41.7808 158.529 41.7808C159.934 41.7808 160.951 41.0442 160.951 39.1412V38.0566H159.791V39.1821C159.791 40.1029 159.445 40.7782 158.57 40.7782C157.858 40.7782 157.329 40.328 157.329 39.1821V33.7799C157.329 32.6545 157.675 31.836 158.55 31.836C159.262 31.836 159.771 32.3885 159.771 33.7799V34.8645H160.931V31.0379H159.975L159.873 31.8565Z" fill="#044770"/>
<path d="M167.033 40.6759H165.812V32.0406H167.481V34.0255H168.6V31.0379H161.863V34.0255H162.983V32.0406H164.652V40.6759H163.41V41.6785H167.033V40.6759Z" fill="#044770"/>
<path d="M171.212 39.489H171.192L171.395 36.2559V32.0406H172.27V31.0379H169.319V32.0406H170.235V40.6759H169.543V41.6785H171.395L174.285 33.4935H174.305L174.122 36.6856V40.6759H173.227V41.6785H176.198V40.6759H175.282V32.0406H176.198V31.0379H174.122L171.212 39.489Z" fill="#044770"/>
</svg>
